<mxfile host="65bd71144e">
    <diagram id="KUstwBEOk2UICQYK5f2p" name="Page-1">
        <mxGraphModel dx="1994" dy="1505" grid="1" gridSize="10" guides="1" tooltips="1" connect="1" arrows="1" fold="1" page="1" pageScale="1" pageWidth="850" pageHeight="1100" math="0" shadow="0">
            <root>
                <mxCell id="0"/>
                <mxCell id="1" parent="0"/>
                <mxCell id="27" style="edgeStyle=none;html=1;entryX=0.5;entryY=0;entryDx=0;entryDy=0;" edge="1" parent="1" source="2" target="3">
                    <mxGeometry relative="1" as="geometry"/>
                </mxCell>
                <mxCell id="2" value="&amp;lt;App /&amp;gt;" style="rounded=0;whiteSpace=wrap;html=1;" parent="1" vertex="1">
                    <mxGeometry x="240" y="-130" width="120" height="60" as="geometry"/>
                </mxCell>
                <mxCell id="10" style="edgeStyle=none;html=1;entryX=0.446;entryY=-0.022;entryDx=0;entryDy=0;entryPerimeter=0;" parent="1" source="3" target="4" edge="1">
                    <mxGeometry relative="1" as="geometry"/>
                </mxCell>
                <mxCell id="11" value="" style="edgeStyle=none;html=1;" parent="1" source="3" target="5" edge="1">
                    <mxGeometry relative="1" as="geometry"/>
                </mxCell>
                <mxCell id="12" style="edgeStyle=none;html=1;entryX=0.5;entryY=0;entryDx=0;entryDy=0;" parent="1" source="3" target="6" edge="1">
                    <mxGeometry relative="1" as="geometry"/>
                </mxCell>
                <mxCell id="3" value="&amp;lt;TodoApp /&amp;gt;" style="rounded=0;whiteSpace=wrap;html=1;" parent="1" vertex="1">
                    <mxGeometry x="240" y="-20" width="120" height="60" as="geometry"/>
                </mxCell>
                <mxCell id="4" value="&amp;lt;TodoHeader /&amp;gt;" style="rounded=0;whiteSpace=wrap;html=1;" parent="1" vertex="1">
                    <mxGeometry x="-330" y="160" width="120" height="60" as="geometry"/>
                </mxCell>
                <mxCell id="13" style="edgeStyle=none;html=1;entryX=0.5;entryY=0;entryDx=0;entryDy=0;" parent="1" source="5" target="7" edge="1">
                    <mxGeometry relative="1" as="geometry"/>
                </mxCell>
                <mxCell id="14" style="edgeStyle=none;html=1;entryX=0.5;entryY=0;entryDx=0;entryDy=0;" parent="1" source="5" target="8" edge="1">
                    <mxGeometry relative="1" as="geometry"/>
                </mxCell>
                <mxCell id="15" style="edgeStyle=none;html=1;entryX=0.5;entryY=0;entryDx=0;entryDy=0;" parent="1" source="5" target="9" edge="1">
                    <mxGeometry relative="1" as="geometry"/>
                </mxCell>
                <mxCell id="17" style="edgeStyle=none;html=1;entryX=0.595;entryY=-0.05;entryDx=0;entryDy=0;entryPerimeter=0;" parent="1" source="5" target="16" edge="1">
                    <mxGeometry relative="1" as="geometry"/>
                </mxCell>
                <mxCell id="5" value="&amp;lt;TodoList /&amp;gt;" style="rounded=0;whiteSpace=wrap;html=1;" parent="1" vertex="1">
                    <mxGeometry x="240" y="160" width="120" height="60" as="geometry"/>
                </mxCell>
                <mxCell id="6" value="&amp;lt;AddTodo /&amp;gt;" style="rounded=0;whiteSpace=wrap;html=1;" parent="1" vertex="1">
                    <mxGeometry x="750" y="160" width="120" height="60" as="geometry"/>
                </mxCell>
                <mxCell id="7" value="&amp;lt;SingleTodo onDelete=handleDelete &lt;br&gt;onToggle=handleToggleTodo /&amp;gt;" style="rounded=0;whiteSpace=wrap;html=1;" parent="1" vertex="1">
                    <mxGeometry x="-190" y="400" width="190" height="60" as="geometry"/>
                </mxCell>
                <mxCell id="8" value="&amp;lt;SingleTodo /&amp;gt;" style="rounded=0;whiteSpace=wrap;html=1;" parent="1" vertex="1">
                    <mxGeometry x="130" y="440" width="120" height="40" as="geometry"/>
                </mxCell>
                <mxCell id="9" value="&amp;lt;SingleTodo /&amp;gt;" style="rounded=0;whiteSpace=wrap;html=1;" parent="1" vertex="1">
                    <mxGeometry x="400" y="440" width="120" height="60" as="geometry"/>
                </mxCell>
                <mxCell id="24" style="edgeStyle=none;html=1;entryX=0.5;entryY=0;entryDx=0;entryDy=0;" parent="1" source="16" target="23" edge="1">
                    <mxGeometry relative="1" as="geometry"/>
                </mxCell>
                <mxCell id="16" value="&amp;lt;SingleTodo /&amp;gt;&lt;br&gt;&lt;div style=&quot;color: rgb(255 , 255 , 255) ; background-color: rgb(25 , 53 , 73) ; font-family: &amp;#34;cascadia code&amp;#34; , &amp;#34;menlo&amp;#34; , &amp;#34;monaco&amp;#34; , &amp;#34;courier new&amp;#34; , monospace , &amp;#34;consolas&amp;#34; , &amp;#34;courier new&amp;#34; , monospace ; font-size: 15px ; line-height: 20px&quot;&gt;&lt;div&gt;&lt;span style=&quot;color: #e1efff&quot;&gt;&amp;lt;&lt;/span&gt;&lt;span style=&quot;color: #80ffbb&quot;&gt;Icon&lt;/span&gt;&lt;/div&gt;&lt;div&gt;&lt;span style=&quot;color: #9effff&quot;&gt;&amp;nbsp; &amp;nbsp; &amp;nbsp; &amp;nbsp; &lt;/span&gt;&lt;span style=&quot;color: #ffc600 ; font-style: italic&quot;&gt;onClick&lt;/span&gt;&lt;span style=&quot;color: #ff9d00&quot;&gt;=&lt;/span&gt;&lt;span style=&quot;color: #e1efff&quot;&gt;{&lt;/span&gt;&lt;span style=&quot;color: #ffc600&quot;&gt;clickHandler&lt;/span&gt;&lt;span style=&quot;color: #e1efff&quot;&gt;}&lt;/span&gt;&lt;span style=&quot;color: rgb(225 , 239 , 255)&quot;&gt;/&amp;gt;&lt;/span&gt;&lt;/div&gt;&lt;/div&gt;" style="rounded=0;whiteSpace=wrap;html=1;" parent="1" vertex="1">
                    <mxGeometry x="640" y="400" width="390" height="120" as="geometry"/>
                </mxCell>
                <mxCell id="20" value="STATE: &lt;br&gt;isDone = false" style="rounded=0;whiteSpace=wrap;html=1;" parent="1" vertex="1">
                    <mxGeometry x="130" y="620" width="120" height="40" as="geometry"/>
                </mxCell>
                <mxCell id="21" value="O click isDone = true" style="rounded=0;whiteSpace=wrap;html=1;" parent="1" vertex="1">
                    <mxGeometry x="130" y="660" width="120" height="40" as="geometry"/>
                </mxCell>
                <mxCell id="22" value="O click isDone = false" style="rounded=0;whiteSpace=wrap;html=1;" parent="1" vertex="1">
                    <mxGeometry x="130" y="700" width="120" height="40" as="geometry"/>
                </mxCell>
                <mxCell id="23" value="&amp;lt;Icon props.onClick /&amp;gt;&lt;br&gt;&lt;div style=&quot;color: rgb(255 , 255 , 255) ; background-color: rgb(25 , 53 , 73) ; font-family: &amp;#34;cascadia code&amp;#34; , &amp;#34;menlo&amp;#34; , &amp;#34;monaco&amp;#34; , &amp;#34;courier new&amp;#34; , monospace , &amp;#34;consolas&amp;#34; , &amp;#34;courier new&amp;#34; , monospace ; font-size: 15px ; line-height: 20px&quot;&gt;&lt;span style=&quot;color: #e1efff&quot;&gt;&amp;lt;&lt;/span&gt;&lt;span style=&quot;color: #9effff&quot;&gt;i&lt;/span&gt;&lt;span style=&quot;color: #9effff&quot;&gt; &lt;/span&gt;&lt;span style=&quot;color: #ffc600 ; font-style: italic&quot;&gt;onClick&lt;/span&gt;&lt;span style=&quot;color: #ff9d00&quot;&gt;=&lt;/span&gt;&lt;span style=&quot;color: #e1efff&quot;&gt;{&lt;/span&gt;&lt;span style=&quot;color: #e1efff&quot;&gt;onClick&lt;/span&gt;&lt;span style=&quot;color: #e1efff&quot;&gt;}&lt;/span&gt;&lt;span style=&quot;color: #e1efff&quot;&gt;&amp;gt;&amp;lt;/&lt;/span&gt;&lt;span style=&quot;color: #9effff&quot;&gt;i&lt;/span&gt;&lt;span style=&quot;color: #e1efff&quot;&gt;&amp;gt;&lt;/span&gt;&lt;/div&gt;" style="rounded=0;whiteSpace=wrap;html=1;" parent="1" vertex="1">
                    <mxGeometry x="680" y="590" width="310" height="60" as="geometry"/>
                </mxCell>
                <mxCell id="26" value="" style="edgeStyle=none;html=1;fontSize=12;entryX=0;entryY=0.5;entryDx=0;entryDy=0;" parent="1" source="25" target="28" edge="1">
                    <mxGeometry relative="1" as="geometry"/>
                </mxCell>
                <mxCell id="25" value="&lt;div style=&quot;color: rgb(255 , 255 , 255) ; background-color: rgb(25 , 53 , 73) ; font-family: &amp;#34;cascadia code&amp;#34; , &amp;#34;menlo&amp;#34; , &amp;#34;monaco&amp;#34; , &amp;#34;courier new&amp;#34; , monospace , &amp;#34;consolas&amp;#34; , &amp;#34;courier new&amp;#34; , monospace ; line-height: 20px&quot;&gt;&lt;div&gt;&lt;span style=&quot;color: #e1efff&quot;&gt;[&lt;/span&gt;&lt;/div&gt;&lt;div&gt;&lt;span style=&quot;color: #9effff&quot;&gt;&amp;nbsp; &lt;/span&gt;&lt;span style=&quot;color: #e1efff&quot;&gt;{&lt;/span&gt;&lt;span style=&quot;color: #9effff&quot;&gt; &lt;/span&gt;&lt;span style=&quot;color: #9effff&quot;&gt;id&lt;/span&gt;&lt;span style=&quot;color: #e1efff&quot;&gt;:&lt;/span&gt;&lt;span style=&quot;color: #9effff&quot;&gt; &lt;/span&gt;&lt;span style=&quot;color: #ff628c&quot;&gt;1&lt;/span&gt;&lt;span style=&quot;color: #e1efff&quot;&gt;,&lt;/span&gt;&lt;span style=&quot;color: #9effff&quot;&gt; &lt;/span&gt;&lt;span style=&quot;color: #9effff&quot;&gt;title&lt;/span&gt;&lt;span style=&quot;color: #e1efff&quot;&gt;:&lt;/span&gt;&lt;span style=&quot;color: #9effff&quot;&gt; &lt;/span&gt;&lt;span style=&quot;color: #92fc79&quot;&gt;'&lt;/span&gt;&lt;span style=&quot;color: #a5ff90&quot;&gt;Do Sports&lt;/span&gt;&lt;span style=&quot;color: #92fc79&quot;&gt;'&lt;/span&gt;&lt;span style=&quot;color: #e1efff&quot;&gt;,&lt;/span&gt;&lt;span style=&quot;color: #9effff&quot;&gt; &lt;/span&gt;&lt;span style=&quot;color: #9effff&quot;&gt;isDone&lt;/span&gt;&lt;span style=&quot;color: #e1efff&quot;&gt;:&lt;/span&gt;&lt;span style=&quot;color: #9effff&quot;&gt; &lt;/span&gt;&lt;span style=&quot;color: #ff628c&quot;&gt;true&lt;/span&gt;&lt;span style=&quot;color: #9effff&quot;&gt; &lt;/span&gt;&lt;span style=&quot;color: #e1efff&quot;&gt;},&lt;/span&gt;&lt;/div&gt;&lt;div&gt;&lt;span style=&quot;color: #9effff&quot;&gt;&amp;nbsp; &lt;/span&gt;&lt;span style=&quot;color: #e1efff&quot;&gt;{&lt;/span&gt;&lt;span style=&quot;color: #9effff&quot;&gt; &lt;/span&gt;&lt;span style=&quot;color: #9effff&quot;&gt;id&lt;/span&gt;&lt;span style=&quot;color: #e1efff&quot;&gt;:&lt;/span&gt;&lt;span style=&quot;color: #9effff&quot;&gt; &lt;/span&gt;&lt;span style=&quot;color: #ff628c&quot;&gt;2&lt;/span&gt;&lt;span style=&quot;color: #e1efff&quot;&gt;,&lt;/span&gt;&lt;span style=&quot;color: #9effff&quot;&gt; &lt;/span&gt;&lt;span style=&quot;color: #9effff&quot;&gt;title&lt;/span&gt;&lt;span style=&quot;color: #e1efff&quot;&gt;:&lt;/span&gt;&lt;span style=&quot;color: #9effff&quot;&gt; &lt;/span&gt;&lt;span style=&quot;color: #92fc79&quot;&gt;'&lt;/span&gt;&lt;span style=&quot;color: #a5ff90&quot;&gt;Go Hiking&lt;/span&gt;&lt;span style=&quot;color: #92fc79&quot;&gt;'&lt;/span&gt;&lt;span style=&quot;color: #e1efff&quot;&gt;,&lt;/span&gt;&lt;span style=&quot;color: #9effff&quot;&gt; &lt;/span&gt;&lt;span style=&quot;color: #9effff&quot;&gt;isDone&lt;/span&gt;&lt;span style=&quot;color: #e1efff&quot;&gt;:&lt;/span&gt;&lt;span style=&quot;color: #9effff&quot;&gt; &lt;/span&gt;&lt;span style=&quot;color: #ff628c&quot;&gt;false&lt;/span&gt;&lt;span style=&quot;color: #9effff&quot;&gt; &lt;/span&gt;&lt;span style=&quot;color: #e1efff&quot;&gt;},&lt;/span&gt;&lt;/div&gt;&lt;div&gt;&lt;span style=&quot;color: #e1efff&quot;&gt;]&lt;/span&gt;&lt;/div&gt;&lt;/div&gt;" style="rounded=0;whiteSpace=wrap;html=1;" parent="1" vertex="1">
                    <mxGeometry x="-170" y="130" width="350" height="110" as="geometry"/>
                </mxCell>
                <mxCell id="28" value="STATE: &lt;br&gt;mainTodoArr = []" style="rounded=0;whiteSpace=wrap;html=1;" vertex="1" parent="1">
                    <mxGeometry x="240" y="220" width="120" height="40" as="geometry"/>
                </mxCell>
                <mxCell id="29" value="Icon Delete" style="rounded=0;whiteSpace=wrap;html=1;" vertex="1" parent="1">
                    <mxGeometry x="-190" y="460" width="190" height="30" as="geometry"/>
                </mxCell>
                <mxCell id="32" style="edgeStyle=none;html=1;entryX=1;entryY=0.5;entryDx=0;entryDy=0;" edge="1" parent="1" source="31" target="7">
                    <mxGeometry relative="1" as="geometry"/>
                </mxCell>
                <mxCell id="31" value="handleDelete(deleteId)" style="rounded=0;whiteSpace=wrap;html=1;" vertex="1" parent="1">
                    <mxGeometry x="240" y="260" width="150" height="40" as="geometry"/>
                </mxCell>
                <mxCell id="34" style="edgeStyle=none;html=1;entryX=1;entryY=0.75;entryDx=0;entryDy=0;" edge="1" parent="1" source="33" target="7">
                    <mxGeometry relative="1" as="geometry"/>
                </mxCell>
                <mxCell id="33" value="&lt;div style=&quot;color: rgb(255 , 255 , 255) ; background-color: rgb(25 , 53 , 73) ; font-family: &amp;#34;cascadia code&amp;#34; , &amp;#34;menlo&amp;#34; , &amp;#34;monaco&amp;#34; , &amp;#34;courier new&amp;#34; , monospace , &amp;#34;consolas&amp;#34; , &amp;#34;courier new&amp;#34; , monospace ; font-size: 15px ; line-height: 20px&quot;&gt;&lt;span style=&quot;color: #ffc600&quot;&gt;handleToggleTodo&lt;/span&gt;&lt;span style=&quot;color: #ffee80&quot;&gt;(toggleId)&lt;/span&gt;&lt;/div&gt;" style="rounded=0;whiteSpace=wrap;html=1;" vertex="1" parent="1">
                    <mxGeometry x="240" y="300" width="240" height="40" as="geometry"/>
                </mxCell>
                <mxCell id="35" value="Icon O" style="rounded=0;whiteSpace=wrap;html=1;" vertex="1" parent="1">
                    <mxGeometry x="-190" y="490" width="190" height="30" as="geometry"/>
                </mxCell>
            </root>
        </mxGraphModel>
    </diagram>
</mxfile>